<svg xmlns="http://www.w3.org/2000/svg" xmlns:xlink="http://www.w3.org/1999/xlink" width="40" zoomAndPan="magnify" viewBox="0 0 30 30.000001" height="40" preserveAspectRatio="xMidYMid meet" version="1.0"><defs><clipPath id="62357be44e"><path d="M 16 13 L 24.515625 13 L 24.515625 22 L 16 22 Z M 16 13 " clip-rule="nonzero"/></clipPath><clipPath id="4f5c804659"><path d="M 9 4.046875 L 20 4.046875 L 20 11 L 9 11 Z M 9 4.046875 " clip-rule="nonzero"/></clipPath><clipPath id="acab00adea"><path d="M 5.644531 4.046875 L 20 4.046875 L 20 25 L 5.644531 25 Z M 5.644531 4.046875 " clip-rule="nonzero"/></clipPath></defs><g clip-path="url(#62357be44e)"><path fill="#000000" d="M 24.378906 20.3125 C 24.152344 20.59375 23.945312 20.808594 23.765625 20.945312 C 23.542969 21.117188 23.265625 21.203125 22.941406 21.203125 C 22.5625 21.203125 22.261719 21.027344 22.046875 20.683594 C 21.847656 20.367188 21.664062 19.832031 21.488281 19.042969 L 20.851562 16.515625 C 20.621094 15.503906 20.257812 14.761719 19.773438 14.304688 C 19.289062 13.847656 18.492188 13.527344 17.402344 13.351562 L 16.78125 13.25 C 17.027344 13.328125 17.242188 13.4375 17.421875 13.578125 C 17.796875 13.875 18.085938 14.273438 18.273438 14.761719 C 18.453125 15.226562 18.648438 15.902344 18.851562 16.765625 L 19.414062 19.253906 C 19.628906 20.210938 19.949219 20.882812 20.375 21.257812 C 20.796875 21.628906 21.339844 21.816406 21.996094 21.816406 C 22.609375 21.816406 23.109375 21.695312 23.472656 21.464844 C 23.816406 21.25 24.167969 20.894531 24.515625 20.414062 Z M 24.378906 20.3125 " fill-opacity="1" fill-rule="nonzero"/></g><path fill="#000000" d="M 13.238281 9.277344 C 12.386719 9.769531 11.757812 10.257812 11.367188 10.742188 C 11.300781 10.832031 11.234375 10.929688 11.167969 11.03125 L 11.167969 15.15625 C 11.179688 15.167969 11.1875 15.179688 11.199219 15.191406 C 11.507812 15.53125 11.871094 15.695312 12.273438 15.6875 L 12.492188 15.683594 L 12.394531 15.878906 C 12.375 15.917969 12.347656 15.953125 12.3125 15.992188 C 12.226562 16.085938 12.109375 16.144531 11.964844 16.160156 C 11.679688 16.191406 11.414062 16.164062 11.167969 16.074219 L 11.167969 17.480469 C 11.273438 17.597656 11.367188 17.722656 11.457031 17.863281 C 11.691406 18.261719 11.835938 18.667969 11.882812 19.066406 C 11.929688 19.46875 11.910156 19.871094 11.824219 20.269531 C 11.707031 20.773438 11.511719 21.148438 11.238281 21.394531 C 11.542969 21.390625 11.871094 21.390625 12.214844 21.390625 C 12.859375 21.390625 13.4375 21.394531 13.953125 21.40625 C 13.980469 21.34375 14.003906 21.277344 14.027344 21.210938 C 14.042969 21.164062 14.058594 21.117188 14.070312 21.070312 C 14.070312 21.070312 14.070312 21.070312 14.066406 21.070312 C 13.742188 20.953125 13.515625 20.730469 13.398438 20.40625 C 13.289062 20.105469 13.234375 19.640625 13.234375 18.988281 L 13.234375 13.121094 L 15.015625 13.121094 C 15.019531 13.058594 15.023438 12.996094 15.023438 12.929688 L 13.238281 12.929688 Z M 13.238281 9.277344 " fill-opacity="1" fill-rule="nonzero"/><path fill="#000000" d="M 9.101562 21.265625 L 9.101562 21.457031 C 9.359375 21.441406 9.660156 21.425781 10.003906 21.417969 L 10.0625 21.398438 C 10.289062 21.328125 10.480469 21.164062 10.632812 20.914062 C 10.546875 20.976562 10.449219 21.03125 10.339844 21.070312 C 10.066406 21.164062 9.660156 21.230469 9.101562 21.265625 Z M 9.101562 21.265625 " fill-opacity="1" fill-rule="nonzero"/><path fill="#000000" d="M 19.929688 11.96875 C 20.644531 11.464844 21.160156 10.894531 21.464844 10.265625 C 21.765625 9.636719 21.921875 9.003906 21.921875 8.382812 C 21.921875 7.164062 21.40625 6.15625 20.386719 5.386719 C 20.238281 5.277344 20.082031 5.175781 19.914062 5.078125 C 19.898438 5.25 19.855469 5.414062 19.777344 5.578125 C 19.660156 5.835938 19.503906 6.058594 19.316406 6.246094 C 19.289062 6.277344 19.257812 6.304688 19.222656 6.335938 C 19.523438 6.964844 19.675781 7.742188 19.675781 8.65625 C 19.675781 9.976562 19.34375 11.03125 18.695312 11.785156 C 18.1875 12.371094 17.355469 12.730469 16.214844 12.867188 C 16.214844 12.957031 16.214844 13.046875 16.214844 13.132812 L 17.097656 12.996094 C 18.257812 12.820312 19.210938 12.476562 19.929688 11.96875 Z M 19.929688 11.96875 " fill-opacity="1" fill-rule="nonzero"/><g clip-path="url(#4f5c804659)"><path fill="#000000" d="M 11.171875 10.105469 C 11.425781 9.875 11.671875 9.667969 11.90625 9.496094 C 12.210938 9.273438 12.605469 9.035156 13.082031 8.78125 C 13.132812 8.753906 13.183594 8.726562 13.238281 8.703125 L 13.238281 6.667969 C 13.238281 6.050781 13.289062 5.59375 13.398438 5.277344 C 13.515625 4.9375 13.726562 4.699219 14.03125 4.566406 C 14.316406 4.441406 14.726562 4.378906 15.28125 4.378906 C 16.816406 4.378906 17.945312 4.746094 18.636719 5.472656 C 18.75 5.589844 18.851562 5.71875 18.945312 5.859375 C 19.214844 5.578125 19.335938 5.265625 19.296875 4.925781 C 19.289062 4.867188 19.277344 4.816406 19.261719 4.761719 C 18.355469 4.398438 17.238281 4.214844 15.917969 4.214844 C 15.519531 4.214844 15.152344 4.222656 14.828125 4.238281 L 12.066406 4.265625 C 10.804688 4.265625 9.808594 4.242188 9.101562 4.199219 L 9.101562 4.390625 C 9.660156 4.425781 10.066406 4.492188 10.339844 4.585938 C 10.664062 4.703125 10.890625 4.925781 11.007812 5.25 C 11.117188 5.554688 11.171875 6.015625 11.171875 6.667969 Z M 11.171875 10.105469 " fill-opacity="1" fill-rule="nonzero"/></g><g clip-path="url(#acab00adea)"><path fill="#03989e" d="M 10.570312 24.882812 C 11.46875 24.78125 12.261719 24.519531 12.921875 24.113281 C 13.582031 23.703125 14.105469 23.195312 14.484375 22.605469 C 14.6875 22.292969 14.867188 21.941406 15.03125 21.566406 C 15.046875 21.527344 15.066406 21.484375 15.082031 21.445312 C 15.109375 21.382812 15.132812 21.320312 15.15625 21.257812 C 15.171875 21.214844 15.1875 21.175781 15.203125 21.136719 C 15.28125 20.921875 15.355469 20.699219 15.425781 20.46875 C 15.667969 19.648438 15.828125 18.804688 15.90625 17.964844 C 15.984375 17.121094 16.039062 16.203125 16.066406 15.230469 C 16.085938 14.660156 16.089844 14 16.085938 13.253906 C 16.085938 13.214844 16.085938 13.175781 16.085938 13.132812 C 16.085938 13.050781 16.082031 12.96875 16.082031 12.886719 C 16.082031 12.84375 16.082031 12.804688 16.082031 12.761719 C 16.078125 12.386719 16.070312 11.992188 16.058594 11.578125 C 16.027344 10.121094 16.089844 8.84375 16.253906 7.789062 C 16.257812 7.75 16.285156 7.71875 16.320312 7.703125 C 17.269531 7.316406 17.988281 6.976562 18.453125 6.703125 C 18.703125 6.566406 18.90625 6.429688 19.066406 6.296875 C 19.101562 6.269531 19.132812 6.242188 19.164062 6.214844 C 19.183594 6.195312 19.203125 6.175781 19.222656 6.15625 C 19.398438 5.980469 19.542969 5.769531 19.65625 5.527344 C 19.734375 5.355469 19.777344 5.183594 19.785156 5.007812 C 19.789062 4.960938 19.785156 4.914062 19.78125 4.867188 C 19.78125 4.847656 19.78125 4.824219 19.78125 4.800781 C 19.753906 4.5625 19.667969 4.371094 19.535156 4.238281 C 19.40625 4.109375 19.261719 4.054688 19.089844 4.078125 C 18.980469 4.089844 18.902344 4.136719 18.855469 4.222656 C 18.976562 4.238281 19.085938 4.296875 19.183594 4.386719 C 19.269531 4.464844 19.332031 4.566406 19.375 4.679688 C 19.390625 4.726562 19.40625 4.777344 19.414062 4.832031 C 19.421875 4.859375 19.429688 4.886719 19.429688 4.914062 C 19.476562 5.300781 19.335938 5.65625 19.023438 5.972656 C 18.996094 6.003906 18.964844 6.03125 18.933594 6.0625 C 18.871094 6.113281 18.808594 6.167969 18.738281 6.21875 C 18.246094 6.574219 17.496094 6.964844 16.503906 7.386719 C 16.464844 7.402344 16.421875 7.398438 16.390625 7.371094 C 16.359375 7.34375 16.34375 7.300781 16.351562 7.261719 C 16.605469 6.125 17.113281 5.460938 17.863281 5.292969 C 17.851562 5.28125 17.839844 5.273438 17.824219 5.265625 C 17.777344 5.234375 17.726562 5.222656 17.671875 5.226562 C 16.703125 5.339844 16.03125 6.167969 15.671875 7.695312 C 15.664062 7.730469 15.640625 7.757812 15.605469 7.769531 C 14.773438 8.121094 14.019531 8.460938 13.359375 8.789062 C 13.316406 8.8125 13.277344 8.832031 13.234375 8.851562 C 13.203125 8.867188 13.171875 8.882812 13.144531 8.898438 C 12.671875 9.148438 12.285156 9.386719 11.984375 9.605469 C 11.726562 9.796875 11.453125 10.027344 11.167969 10.289062 C 11.128906 10.328125 11.085938 10.367188 11.046875 10.40625 C 11.042969 10.410156 11.039062 10.410156 11.039062 10.414062 C 10.710938 10.726562 10.460938 11.042969 10.289062 11.367188 C 10.113281 11.6875 9.976562 12.066406 9.882812 12.488281 C 9.789062 12.910156 9.773438 13.417969 9.84375 14 C 9.910156 14.570312 10.148438 15.074219 10.550781 15.5 C 10.707031 15.664062 10.871094 15.789062 11.046875 15.878906 C 11.085938 15.902344 11.128906 15.917969 11.167969 15.933594 C 11.410156 16.035156 11.667969 16.066406 11.949219 16.035156 C 12.0625 16.023438 12.148438 15.980469 12.214844 15.910156 C 12.242188 15.878906 12.261719 15.851562 12.277344 15.824219 C 11.863281 15.835938 11.492188 15.675781 11.167969 15.355469 C 11.144531 15.332031 11.121094 15.308594 11.101562 15.285156 C 11.082031 15.265625 11.0625 15.242188 11.046875 15.21875 C 10.710938 14.832031 10.507812 14.335938 10.441406 13.746094 C 10.367188 13.128906 10.417969 12.546875 10.585938 12.015625 C 10.707031 11.628906 10.859375 11.285156 11.046875 10.984375 C 11.085938 10.917969 11.125 10.855469 11.167969 10.792969 C 11.199219 10.75 11.230469 10.707031 11.265625 10.664062 C 11.675781 10.15625 12.335938 9.644531 13.234375 9.128906 C 13.277344 9.105469 13.316406 9.082031 13.359375 9.058594 C 13.949219 8.730469 14.636719 8.402344 15.421875 8.074219 C 15.457031 8.058594 15.5 8.0625 15.53125 8.089844 C 15.5625 8.113281 15.578125 8.15625 15.574219 8.195312 C 15.382812 9.242188 15.25 10.792969 15.164062 12.8125 C 15.164062 12.851562 15.160156 12.894531 15.160156 12.933594 C 15.15625 13 15.152344 13.0625 15.152344 13.125 C 15.148438 13.167969 15.148438 13.207031 15.148438 13.25 C 15.128906 13.695312 15.117188 14.164062 15.105469 14.652344 C 15.089844 15.734375 15 16.898438 14.839844 18.109375 C 14.695312 19.203125 14.488281 20.171875 14.234375 20.996094 C 14.222656 21.039062 14.210938 21.074219 14.195312 21.113281 C 14.179688 21.160156 14.167969 21.210938 14.152344 21.257812 C 14.132812 21.3125 14.113281 21.363281 14.09375 21.414062 C 14.078125 21.457031 14.066406 21.496094 14.050781 21.539062 C 13.746094 22.308594 13.300781 22.984375 12.714844 23.554688 C 12.050781 24.195312 11.28125 24.570312 10.421875 24.667969 C 9.566406 24.765625 8.835938 24.710938 8.246094 24.5 C 7.121094 24.113281 6.367188 23.289062 6.007812 22.050781 C 5.914062 21.777344 5.851562 21.492188 5.820312 21.207031 C 5.726562 20.390625 5.859375 19.585938 6.210938 18.8125 C 6.738281 17.6875 7.582031 17.046875 8.726562 16.917969 C 9.714844 16.804688 10.433594 17.183594 10.855469 18.050781 C 10.933594 18.21875 10.996094 18.398438 11.046875 18.589844 C 11.089844 18.75 11.121094 18.921875 11.140625 19.097656 C 11.15625 19.226562 11.160156 19.363281 11.15625 19.503906 C 11.15625 19.550781 11.152344 19.597656 11.148438 19.644531 C 11.148438 19.648438 11.148438 19.648438 11.148438 19.648438 C 11.144531 19.675781 11.140625 19.703125 11.140625 19.730469 C 11.117188 19.929688 11.074219 20.136719 11.011719 20.351562 C 10.996094 20.414062 10.976562 20.472656 10.953125 20.53125 C 10.808594 20.953125 10.601562 21.246094 10.339844 21.414062 C 10.265625 21.460938 10.1875 21.503906 10.101562 21.53125 C 10.105469 21.535156 10.113281 21.539062 10.117188 21.542969 C 10.207031 21.613281 10.300781 21.640625 10.402344 21.628906 C 10.542969 21.613281 10.671875 21.578125 10.789062 21.527344 C 10.871094 21.496094 10.949219 21.453125 11.019531 21.402344 C 11.339844 21.179688 11.5625 20.796875 11.695312 20.246094 C 11.777344 19.863281 11.792969 19.476562 11.75 19.089844 C 11.707031 18.707031 11.570312 18.320312 11.34375 17.9375 C 11.289062 17.847656 11.230469 17.769531 11.167969 17.691406 C 11.128906 17.640625 11.089844 17.59375 11.046875 17.546875 C 10.492188 16.941406 9.703125 16.691406 8.695312 16.808594 C 8.101562 16.878906 7.5625 17.097656 7.09375 17.46875 C 6.300781 18.097656 5.828125 19.011719 5.691406 20.191406 C 5.644531 20.597656 5.644531 20.992188 5.6875 21.367188 C 5.777344 22.140625 6.0625 22.84375 6.53125 23.449219 C 7.433594 24.605469 8.792969 25.089844 10.570312 24.882812 Z M 10.570312 24.882812 " fill-opacity="1" fill-rule="nonzero"/></g></svg>